<svg id="globe-outline" xmlns="http://www.w3.org/2000/svg" width="24" height="24" viewBox="0 0 24 24">
  <rect id="Rectangle" width="24" height="24" transform="translate(24 24) rotate(180)" opacity="0"/>
  <path id="Shape" d="M10,20A10,10,0,1,1,20,10,10.011,10.011,0,0,1,10,20ZM7.08,11h0A11.041,11.041,0,0,0,10,17.61,11.511,11.511,0,0,0,13,11H7.08ZM2.07,11a8,8,0,0,0,5.35,6.56A12.86,12.86,0,0,1,5.07,11ZM15,11h0a13.15,13.15,0,0,1-2.38,6.55A8,8,0,0,0,17.95,11H15ZM12.67,2.46h0A12.922,12.922,0,0,1,15,9h2.93a8,8,0,0,0-5.26-6.54ZM10,2.4A11.463,11.463,0,0,0,7.08,9H13A11.238,11.238,0,0,0,10,2.4Zm-2.56.03A8,8,0,0,0,2.07,9h3A13.187,13.187,0,0,1,7.44,2.43Z" transform="translate(2 2)" fill="#999"/>
</svg>
